<mxfile host="app.diagrams.net" modified="2023-11-08T08:28:13.530Z" agent="Mozilla/5.0 (Windows NT 10.0; Win64; x64) AppleWebKit/537.36 (KHTML, like Gecko) Chrome/118.0.0.0 Safari/537.36" etag="G3LtMAHQYkX_CvFmMcCQ" version="22.0.8" type="github">
  <diagram name="Page-1" id="2YBvvXClWsGukQMizWep">
    <mxGraphModel dx="1838" dy="1005" grid="1" gridSize="10" guides="1" tooltips="1" connect="1" arrows="1" fold="1" page="1" pageScale="1" pageWidth="850" pageHeight="1100" math="0" shadow="0">
      <root>
        <mxCell id="0" />
        <mxCell id="1" parent="0" />
        <mxCell id="aM9ryv3xv72pqoxQDRHE-1" value="AsyncDispatcher$1" style="shape=umlLifeline;perimeter=lifelinePerimeter;whiteSpace=wrap;html=1;container=0;dropTarget=0;collapsible=0;recursiveResize=0;outlineConnect=0;portConstraint=eastwest;newEdgeStyle={&quot;edgeStyle&quot;:&quot;elbowEdgeStyle&quot;,&quot;elbow&quot;:&quot;vertical&quot;,&quot;curved&quot;:0,&quot;rounded&quot;:0};size=40;" parent="1" vertex="1">
          <mxGeometry x="230" y="100" width="280" height="320" as="geometry" />
        </mxCell>
        <mxCell id="aM9ryv3xv72pqoxQDRHE-2" value="" style="html=1;points=[];perimeter=orthogonalPerimeter;outlineConnect=0;targetShapes=umlLifeline;portConstraint=eastwest;newEdgeStyle={&quot;edgeStyle&quot;:&quot;elbowEdgeStyle&quot;,&quot;elbow&quot;:&quot;vertical&quot;,&quot;curved&quot;:0,&quot;rounded&quot;:0};" parent="aM9ryv3xv72pqoxQDRHE-1" vertex="1">
          <mxGeometry x="135" y="70" width="10" height="190" as="geometry" />
        </mxCell>
        <mxCell id="aM9ryv3xv72pqoxQDRHE-3" value="run" style="html=1;verticalAlign=bottom;startArrow=oval;endArrow=block;startSize=8;edgeStyle=elbowEdgeStyle;elbow=vertical;curved=0;rounded=0;" parent="aM9ryv3xv72pqoxQDRHE-1" target="aM9ryv3xv72pqoxQDRHE-2" edge="1">
          <mxGeometry relative="1" as="geometry">
            <mxPoint x="-40" y="70" as="sourcePoint" />
          </mxGeometry>
        </mxCell>
        <mxCell id="f3iddibicTy-kVgMy-kQ-2" value="" style="html=1;points=[[0,0,0,0,5],[0,1,0,0,-5],[1,0,0,0,5],[1,1,0,0,-5]];perimeter=orthogonalPerimeter;outlineConnect=0;targetShapes=umlLifeline;portConstraint=eastwest;newEdgeStyle={&quot;curved&quot;:0,&quot;rounded&quot;:0};" vertex="1" parent="aM9ryv3xv72pqoxQDRHE-1">
          <mxGeometry x="145" y="145" width="10" height="40" as="geometry" />
        </mxCell>
        <mxCell id="f3iddibicTy-kVgMy-kQ-3" value="dispatch" style="html=1;align=left;spacingLeft=2;endArrow=block;rounded=0;edgeStyle=orthogonalEdgeStyle;curved=0;rounded=0;" edge="1" target="f3iddibicTy-kVgMy-kQ-2" parent="aM9ryv3xv72pqoxQDRHE-1">
          <mxGeometry relative="1" as="geometry">
            <mxPoint x="150" y="125" as="sourcePoint" />
            <Array as="points">
              <mxPoint x="180" y="155" />
            </Array>
          </mxGeometry>
        </mxCell>
        <mxCell id="f3iddibicTy-kVgMy-kQ-5" value="EventHandler" style="shape=umlLifeline;perimeter=lifelinePerimeter;whiteSpace=wrap;html=1;container=1;dropTarget=0;collapsible=0;recursiveResize=0;outlineConnect=0;portConstraint=eastwest;newEdgeStyle={&quot;curved&quot;:0,&quot;rounded&quot;:0};" vertex="1" parent="1">
          <mxGeometry x="570" y="100" width="100" height="320" as="geometry" />
        </mxCell>
        <mxCell id="f3iddibicTy-kVgMy-kQ-7" value="" style="html=1;points=[[0,0,0,0,5],[0,1,0,0,-5],[1,0,0,0,5],[1,1,0,0,-5]];perimeter=orthogonalPerimeter;outlineConnect=0;targetShapes=umlLifeline;portConstraint=eastwest;newEdgeStyle={&quot;curved&quot;:0,&quot;rounded&quot;:0};" vertex="1" parent="f3iddibicTy-kVgMy-kQ-5">
          <mxGeometry x="40" y="204" width="10" height="80" as="geometry" />
        </mxCell>
        <mxCell id="f3iddibicTy-kVgMy-kQ-8" value="handle" style="html=1;verticalAlign=bottom;startArrow=oval;endArrow=block;startSize=8;curved=0;rounded=0;entryX=0;entryY=0;entryDx=0;entryDy=5;entryPerimeter=0;" edge="1" target="f3iddibicTy-kVgMy-kQ-7" parent="1">
          <mxGeometry x="-0.0018" relative="1" as="geometry">
            <mxPoint x="370" y="309" as="sourcePoint" />
            <mxPoint x="650" y="302" as="targetPoint" />
            <mxPoint as="offset" />
          </mxGeometry>
        </mxCell>
        <mxCell id="f3iddibicTy-kVgMy-kQ-9" value="AMLauncher" style="shape=umlLifeline;perimeter=lifelinePerimeter;whiteSpace=wrap;html=1;container=1;dropTarget=0;collapsible=0;recursiveResize=0;outlineConnect=0;portConstraint=eastwest;newEdgeStyle={&quot;curved&quot;:0,&quot;rounded&quot;:0};" vertex="1" parent="1">
          <mxGeometry x="770" y="100" width="100" height="300" as="geometry" />
        </mxCell>
        <mxCell id="f3iddibicTy-kVgMy-kQ-10" value="" style="html=1;points=[[0,0,0,0,5],[0,1,0,0,-5],[1,0,0,0,5],[1,1,0,0,-5]];perimeter=orthogonalPerimeter;outlineConnect=0;targetShapes=umlLifeline;portConstraint=eastwest;newEdgeStyle={&quot;curved&quot;:0,&quot;rounded&quot;:0};" vertex="1" parent="f3iddibicTy-kVgMy-kQ-9">
          <mxGeometry x="40" y="220" width="10" height="80" as="geometry" />
        </mxCell>
        <mxCell id="f3iddibicTy-kVgMy-kQ-11" value="dispatch" style="html=1;verticalAlign=bottom;startArrow=oval;endArrow=block;startSize=8;curved=0;rounded=0;entryX=0;entryY=0;entryDx=0;entryDy=5;" edge="1" target="f3iddibicTy-kVgMy-kQ-10" parent="1" source="f3iddibicTy-kVgMy-kQ-5">
          <mxGeometry relative="1" as="geometry">
            <mxPoint x="790" y="325" as="sourcePoint" />
          </mxGeometry>
        </mxCell>
        <mxCell id="f3iddibicTy-kVgMy-kQ-13" value="ApplicationMasterLauncher" style="shape=umlLifeline;perimeter=lifelinePerimeter;whiteSpace=wrap;html=1;container=1;dropTarget=0;collapsible=0;recursiveResize=0;outlineConnect=0;portConstraint=eastwest;newEdgeStyle={&quot;curved&quot;:0,&quot;rounded&quot;:0};" vertex="1" parent="1">
          <mxGeometry x="995" y="111" width="100" height="450" as="geometry" />
        </mxCell>
        <mxCell id="f3iddibicTy-kVgMy-kQ-17" value="" style="html=1;points=[[0,0,0,0,5],[0,1,0,0,-5],[1,0,0,0,5],[1,1,0,0,-5]];perimeter=orthogonalPerimeter;outlineConnect=0;targetShapes=umlLifeline;portConstraint=eastwest;newEdgeStyle={&quot;curved&quot;:0,&quot;rounded&quot;:0};" vertex="1" parent="f3iddibicTy-kVgMy-kQ-13">
          <mxGeometry x="45" y="240" width="10" height="210" as="geometry" />
        </mxCell>
        <mxCell id="f3iddibicTy-kVgMy-kQ-18" value="" style="html=1;points=[[0,0,0,0,5],[0,1,0,0,-5],[1,0,0,0,5],[1,1,0,0,-5]];perimeter=orthogonalPerimeter;outlineConnect=0;targetShapes=umlLifeline;portConstraint=eastwest;newEdgeStyle={&quot;curved&quot;:0,&quot;rounded&quot;:0};" vertex="1" parent="f3iddibicTy-kVgMy-kQ-13">
          <mxGeometry x="55" y="290" width="10" height="40" as="geometry" />
        </mxCell>
        <mxCell id="f3iddibicTy-kVgMy-kQ-19" value="createRunnableLauncher" style="html=1;align=left;spacingLeft=2;endArrow=block;rounded=0;edgeStyle=orthogonalEdgeStyle;curved=0;rounded=0;" edge="1" target="f3iddibicTy-kVgMy-kQ-18" parent="f3iddibicTy-kVgMy-kQ-13">
          <mxGeometry relative="1" as="geometry">
            <mxPoint x="60" y="270" as="sourcePoint" />
            <Array as="points">
              <mxPoint x="90" y="300" />
            </Array>
          </mxGeometry>
        </mxCell>
        <mxCell id="f3iddibicTy-kVgMy-kQ-20" value="" style="html=1;points=[[0,0,0,0,5],[0,1,0,0,-5],[1,0,0,0,5],[1,1,0,0,-5]];perimeter=orthogonalPerimeter;outlineConnect=0;targetShapes=umlLifeline;portConstraint=eastwest;newEdgeStyle={&quot;curved&quot;:0,&quot;rounded&quot;:0};" vertex="1" parent="f3iddibicTy-kVgMy-kQ-13">
          <mxGeometry x="50" y="380" width="10" height="40" as="geometry" />
        </mxCell>
        <mxCell id="f3iddibicTy-kVgMy-kQ-21" value="&lt;font color=&quot;#ff3333&quot;&gt;masterEvents&lt;/font&gt;.add(launcher);" style="html=1;align=left;spacingLeft=2;endArrow=block;rounded=0;edgeStyle=orthogonalEdgeStyle;curved=0;rounded=0;" edge="1" target="f3iddibicTy-kVgMy-kQ-20" parent="f3iddibicTy-kVgMy-kQ-13">
          <mxGeometry relative="1" as="geometry">
            <mxPoint x="55" y="360" as="sourcePoint" />
            <Array as="points">
              <mxPoint x="85" y="390" />
            </Array>
          </mxGeometry>
        </mxCell>
        <mxCell id="f3iddibicTy-kVgMy-kQ-14" value="cleanup" style="endArrow=open;endSize=12;dashed=1;html=1;rounded=0;exitX=0.48;exitY=0.869;exitDx=0;exitDy=0;exitPerimeter=0;" edge="1" parent="1" source="f3iddibicTy-kVgMy-kQ-9" target="f3iddibicTy-kVgMy-kQ-13">
          <mxGeometry width="160" relative="1" as="geometry">
            <mxPoint x="870" y="350" as="sourcePoint" />
            <mxPoint x="1030" y="350" as="targetPoint" />
          </mxGeometry>
        </mxCell>
        <mxCell id="f3iddibicTy-kVgMy-kQ-22" value="ApplicationMasterLauncher" style="shape=umlLifeline;whiteSpace=wrap;html=1;container=1;dropTarget=0;collapsible=0;recursiveResize=0;outlineConnect=0;portConstraint=eastwest;newEdgeStyle={&quot;curved&quot;:0,&quot;rounded&quot;:0};points=[[0,0,0,0,5],[0,1,0,0,-5],[1,0,0,0,5],[1,1,0,0,-5]];perimeter=rectanglePerimeter;targetShapes=umlLifeline;participant=label;" vertex="1" parent="1">
          <mxGeometry x="240" y="550" width="240" height="300" as="geometry" />
        </mxCell>
        <mxCell id="f3iddibicTy-kVgMy-kQ-51" value="" style="html=1;points=[[0,0,0,0,5],[0,1,0,0,-5],[1,0,0,0,5],[1,1,0,0,-5]];perimeter=orthogonalPerimeter;outlineConnect=0;targetShapes=umlLifeline;portConstraint=eastwest;newEdgeStyle={&quot;curved&quot;:0,&quot;rounded&quot;:0};" vertex="1" parent="f3iddibicTy-kVgMy-kQ-22">
          <mxGeometry x="116" y="93" width="10" height="80" as="geometry" />
        </mxCell>
        <mxCell id="f3iddibicTy-kVgMy-kQ-23" value="run Thread" style="html=1;verticalAlign=bottom;startArrow=oval;endArrow=block;startSize=8;edgeStyle=elbowEdgeStyle;elbow=vertical;curved=0;rounded=0;" edge="1" parent="1">
          <mxGeometry relative="1" as="geometry">
            <mxPoint x="190" y="170" as="sourcePoint" />
            <mxPoint x="365" y="170" as="targetPoint" />
          </mxGeometry>
        </mxCell>
        <mxCell id="f3iddibicTy-kVgMy-kQ-24" value="serviceStart" style="html=1;verticalAlign=bottom;startArrow=oval;endArrow=block;startSize=8;edgeStyle=elbowEdgeStyle;elbow=vertical;curved=0;rounded=0;" edge="1" parent="1">
          <mxGeometry relative="1" as="geometry">
            <mxPoint x="180" y="650" as="sourcePoint" />
            <mxPoint x="355" y="650" as="targetPoint" />
          </mxGeometry>
        </mxCell>
        <mxCell id="f3iddibicTy-kVgMy-kQ-27" value="Thread" style="shape=umlLifeline;perimeter=lifelinePerimeter;whiteSpace=wrap;html=1;container=1;dropTarget=0;collapsible=0;recursiveResize=0;outlineConnect=0;portConstraint=eastwest;newEdgeStyle={&quot;curved&quot;:0,&quot;rounded&quot;:0};" vertex="1" parent="1">
          <mxGeometry x="640" y="550" width="100" height="470" as="geometry" />
        </mxCell>
        <mxCell id="f3iddibicTy-kVgMy-kQ-31" value="" style="html=1;points=[[0,0,0,0,5],[0,1,0,0,-5],[1,0,0,0,5],[1,1,0,0,-5]];perimeter=orthogonalPerimeter;outlineConnect=0;targetShapes=umlLifeline;portConstraint=eastwest;newEdgeStyle={&quot;curved&quot;:0,&quot;rounded&quot;:0};" vertex="1" parent="f3iddibicTy-kVgMy-kQ-27">
          <mxGeometry x="45" y="130" width="10" height="340" as="geometry" />
        </mxCell>
        <mxCell id="f3iddibicTy-kVgMy-kQ-32" value="" style="html=1;points=[[0,0,0,0,5],[0,1,0,0,-5],[1,0,0,0,5],[1,1,0,0,-5]];perimeter=orthogonalPerimeter;outlineConnect=0;targetShapes=umlLifeline;portConstraint=eastwest;newEdgeStyle={&quot;curved&quot;:0,&quot;rounded&quot;:0};" vertex="1" parent="f3iddibicTy-kVgMy-kQ-27">
          <mxGeometry x="50" y="200" width="10" height="180" as="geometry" />
        </mxCell>
        <mxCell id="f3iddibicTy-kVgMy-kQ-33" value="run" style="html=1;align=left;spacingLeft=2;endArrow=block;rounded=0;edgeStyle=orthogonalEdgeStyle;curved=0;rounded=0;" edge="1" target="f3iddibicTy-kVgMy-kQ-32" parent="f3iddibicTy-kVgMy-kQ-27">
          <mxGeometry relative="1" as="geometry">
            <mxPoint x="55" y="180" as="sourcePoint" />
            <Array as="points">
              <mxPoint x="85" y="210" />
            </Array>
          </mxGeometry>
        </mxCell>
        <mxCell id="f3iddibicTy-kVgMy-kQ-36" value="" style="html=1;points=[[0,0,0,0,5],[0,1,0,0,-5],[1,0,0,0,5],[1,1,0,0,-5]];perimeter=orthogonalPerimeter;outlineConnect=0;targetShapes=umlLifeline;portConstraint=eastwest;newEdgeStyle={&quot;curved&quot;:0,&quot;rounded&quot;:0};" vertex="1" parent="f3iddibicTy-kVgMy-kQ-27">
          <mxGeometry x="55" y="280" width="10" height="80" as="geometry" />
        </mxCell>
        <mxCell id="f3iddibicTy-kVgMy-kQ-37" value="toLaunch = &lt;font color=&quot;#ff3333&quot;&gt;masterEvents&lt;/font&gt;.take();&lt;br&gt;launcherPool.execute(toLaunch);" style="html=1;align=left;spacingLeft=2;endArrow=block;rounded=0;edgeStyle=orthogonalEdgeStyle;curved=0;rounded=0;" edge="1" target="f3iddibicTy-kVgMy-kQ-36" parent="f3iddibicTy-kVgMy-kQ-27">
          <mxGeometry relative="1" as="geometry">
            <mxPoint x="60" y="260" as="sourcePoint" />
            <Array as="points">
              <mxPoint x="90" y="290" />
            </Array>
          </mxGeometry>
        </mxCell>
        <mxCell id="f3iddibicTy-kVgMy-kQ-28" value="launcherHandlingThread.start();" style="html=1;verticalAlign=bottom;startArrow=oval;startFill=1;endArrow=block;startSize=8;curved=0;rounded=0;" edge="1" parent="1">
          <mxGeometry width="60" relative="1" as="geometry">
            <mxPoint x="363" y="690" as="sourcePoint" />
            <mxPoint x="682.5" y="690" as="targetPoint" />
          </mxGeometry>
        </mxCell>
        <mxCell id="f3iddibicTy-kVgMy-kQ-44" value="Thread" style="shape=umlLifeline;perimeter=lifelinePerimeter;whiteSpace=wrap;html=1;container=1;dropTarget=0;collapsible=0;recursiveResize=0;outlineConnect=0;portConstraint=eastwest;newEdgeStyle={&quot;curved&quot;:0,&quot;rounded&quot;:0};" vertex="1" parent="1">
          <mxGeometry x="960" y="643" width="100" height="340" as="geometry" />
        </mxCell>
        <mxCell id="f3iddibicTy-kVgMy-kQ-45" value="run event" style="html=1;points=[[0,0,0,0,5],[0,1,0,0,-5],[1,0,0,0,5],[1,1,0,0,-5]];perimeter=orthogonalPerimeter;outlineConnect=0;targetShapes=umlLifeline;portConstraint=eastwest;newEdgeStyle={&quot;curved&quot;:0,&quot;rounded&quot;:0};" vertex="1" parent="f3iddibicTy-kVgMy-kQ-44">
          <mxGeometry x="45" y="227" width="10" height="80" as="geometry" />
        </mxCell>
        <mxCell id="f3iddibicTy-kVgMy-kQ-46" value="run thread" style="html=1;verticalAlign=bottom;startArrow=oval;endArrow=block;startSize=8;curved=0;rounded=0;entryX=0;entryY=0;entryDx=0;entryDy=5;entryPerimeter=0;" edge="1" target="f3iddibicTy-kVgMy-kQ-45" parent="1">
          <mxGeometry relative="1" as="geometry">
            <mxPoint x="705" y="872" as="sourcePoint" />
            <mxPoint x="1040" y="872" as="targetPoint" />
          </mxGeometry>
        </mxCell>
        <mxCell id="f3iddibicTy-kVgMy-kQ-47" value="&lt;pre data-pm-slice=&quot;1 1 []&quot;&gt;org.apache.hadoop.yarn.server.resourcemanager.amlauncher.AMLauncher.createAMContainerLaunchContext(AMLauncher.java:-1)&#xa;org.apache.hadoop.yarn.server.resourcemanager.amlauncher.AMLauncher.launch(AMLauncher.java:108)&#xa;org.apache.hadoop.yarn.server.resourcemanager.amlauncher.AMLauncher.run(AMLauncher.java:254)&#xa;java.util.concurrent.ThreadPoolExecutor.runWorker(ThreadPoolExecutor.java:1142)&#xa;java.util.concurrent.ThreadPoolExecutor$Worker.run(ThreadPoolExecutor.java:617)&#xa;java.lang.Thread.run(Thread.java:745)&lt;/pre&gt;" style="text;whiteSpace=wrap;html=1;" vertex="1" parent="1">
          <mxGeometry x="820" y="674" width="870" height="150" as="geometry" />
        </mxCell>
        <mxCell id="f3iddibicTy-kVgMy-kQ-49" value="这是一个Event" style="rounded=0;whiteSpace=wrap;html=1;fillColor=#ffe6cc;strokeColor=#d79b00;" vertex="1" parent="1">
          <mxGeometry x="985" y="50" width="120" height="60" as="geometry" />
        </mxCell>
      </root>
    </mxGraphModel>
  </diagram>
</mxfile>
